<?xml version="1.0" encoding="UTF-8" standalone="no"?>
<svg
   xmlns:dc="http://purl.org/dc/elements/1.1/"
   xmlns:cc="http://creativecommons.org/ns#"
   xmlns:rdf="http://www.w3.org/1999/02/22-rdf-syntax-ns#"
   xmlns:svg="http://www.w3.org/2000/svg"
   xmlns="http://www.w3.org/2000/svg"
   xmlns:sodipodi="http://sodipodi.sourceforge.net/DTD/sodipodi-0.dtd"
   xmlns:inkscape="http://www.inkscape.org/namespaces/inkscape"
   id="Warstwa_1"
   data-name="Warstwa 1"
   viewBox="0 0 1200 400"
   version="1.1"
   sodipodi:docname="husarnet_fit.svg"
   width="1200"
   height="400"
   inkscape:version="0.92.4 (5da689c313, 2019-01-14)">
  <metadata
     id="metadata29">
    <rdf:RDF>
      <cc:Work
         rdf:about="">
        <dc:format>image/svg+xml</dc:format>
        <dc:type
           rdf:resource="http://purl.org/dc/dcmitype/StillImage" />
        <dc:title>basic_full</dc:title>
      </cc:Work>
    </rdf:RDF>
  </metadata>
  <sodipodi:namedview
     pagecolor="#ffffff"
     bordercolor="#666666"
     borderopacity="1"
     objecttolerance="10"
     gridtolerance="10"
     guidetolerance="10"
     inkscape:pageopacity="0"
     inkscape:pageshadow="2"
     inkscape:window-width="2100"
     inkscape:window-height="1234"
     id="namedview27"
     showgrid="false"
     inkscape:zoom="0.245625"
     inkscape:cx="800"
     inkscape:cy="378.62595"
     inkscape:window-x="-9"
     inkscape:window-y="24"
     inkscape:window-maximized="1"
     inkscape:current-layer="Warstwa_1" />
  <defs
     id="defs4">
    <style
       id="style2">.cls-1{fill:#231f20;}.cls-2{fill:#ed1c24;}</style>
  </defs>
  <title
     id="title6">basic_full</title>
  <path
     class="cls-1"
     d="m 508.37267,172.98359 c 6.59,6.77 9.89,15.94 9.89,27.85 v 56.27 h -23.64 v -53.33 c 0,-12.29 -7.14,-18.88 -18.14,-18.88 -12.27,0 -20.16,7.51 -20.16,22.72 v 49.49 h -23.64 v -128.3 h 23.64 v 46.92 c 5.69,-8.61 14.84,-12.83 27.31,-12.83 10.07,0 18.32,3.3 24.74,10.09 z"
     id="path8"
     inkscape:connector-curvature="0"
     style="fill:#231f20" />
  <path
     class="cls-1"
     d="m 598.85267,165.46359 h 23.64 v 91.64 h -23.64 v -10.27 c -5.7,8.61 -14.84,12.8 -27.31,12.8 -10.07,0 -18.32,-3.3 -24.92,-10.08 -6.41,-6.78 -9.71,-15.94 -9.71,-27.85 v -56.24 h 23.64 v 53.33 c 0,12.28 7.15,18.88 18.14,18.88 12.28,0 20.16,-7.52 20.16,-22.73 z"
     id="path10"
     inkscape:connector-curvature="0"
     style="fill:#231f20" />
  <path
     class="cls-1"
     d="m 681.81267,201.57359 c 13.39,2.74 30.79,9.16 30.61,28.77 0,9.34 -3.48,16.67 -10.63,21.81 -7,5 -15.76,7.51 -26.21,7.51 -18.87,0 -31.7,-7.33 -38.48,-21.8 l 20.53,-11.55 c 2.74,7.87 8.61,11.91 17.95,11.91 8.43,0 12.65,-2.56 12.65,-7.88 0,-4.95 -7.33,-7.7 -16.67,-10.08 -13.57,-3.48 -30.61,-9.16 -30.61,-28.22 0,-9 3.3,-16.13 9.89,-21.26 6.79,-5.32 15,-7.89 24.93,-7.89 14.84,0 27.68,7 34.82,19.44 l -20.16,11 c -2.93,-6.23 -7.88,-9.35 -14.66,-9.35 -6,0 -10.63,2.94 -10.63,7.51 0.01,4.95 7.32,7.69 16.67,10.08 z"
     id="path12"
     inkscape:connector-curvature="0"
     style="fill:#231f20" />
  <path
     class="cls-1"
     d="m 795.94267,165.46359 h 23.65 v 91.64 h -23.65 v -10.81 c -7.14,9 -17,13.37 -29.87,13.37 -12.28,0 -22.72,-4.58 -31.52,-13.93 -8.61,-9.35 -13,-20.9 -13,-34.45 0,-13.55 4.4,-24.93 13,-34.27 8.8,-9.35 19.24,-14.12 31.52,-14.12 12.82,0 22.73,4.41 29.87,13.39 z m -25.46,71.66 q 11,0 18.14,-7.15 c 4.94,-4.94 7.32,-11.18 7.32,-18.69 0,-7.51 -2.38,-13.74 -7.32,-18.52 -4.77,-4.94 -10.82,-7.32 -18.14,-7.32 -7.32,0 -13.39,2.38 -18.15,7.32 -4.77,4.78 -7.15,11 -7.15,18.52 0,7.52 2.38,13.75 7.15,18.69 q 7.14,7.16 18.15,7.15 z"
     id="path14"
     inkscape:connector-curvature="0"
     style="fill:#231f20" />
  <path
     class="cls-1"
     d="m 864.61267,181.23359 c 4.4,-11.73 15.4,-17.6 27.85,-17.6 v 26.39 a 27.52,27.52 0 0 0 -19.42,4.4 c -5.68,3.85 -8.43,10.07 -8.43,18.88 v 43.8 h -23.64 v -91.64 h 23.64 z"
     id="path16"
     inkscape:connector-curvature="0"
     style="fill:#231f20" />
  <path
     class="cls-1"
     d="m 981.86267,172.98359 c 6.6,6.77 9.90005,15.94 9.90005,27.85 v 56.27 h -23.61005 v -53.33 c 0,-12.29 -7.14,-18.88 -18.15,-18.88 -12.27,0 -20.16,7.51 -20.16,22.72 v 49.49 h -23.69 v -91.64 h 23.64 v 10.26 c 5.69,-8.61 14.85,-12.83 27.31,-12.83 10.1,0 18.35,3.3 24.76,10.09 z"
     id="path18"
     inkscape:connector-curvature="0"
     style="fill:#231f20" />
  <path
     class="cls-1"
     d="m 1031.8527,220.99359 c 3.11,11.55 11.73,17.23 25.83,17.23 9,0 16,-3.12 20.53,-9.17 l 19.06,11 c -9,13 -22.36,19.61 -39.95,19.61 -15.21,0 -27.31,-4.58 -36.47,-13.75 -9.16,-9.17 -13.7,-20.7 -13.7,-34.63 0,-13.74 4.58,-25.29 13.55,-34.46 9,-9.34 20.72,-13.93 34.83,-13.93 13.38,0 24.55,4.59 33.17,13.93 8.79,9.35 13.2,20.72 13.2,34.46 a 63,63 0 0 1 -0.92,9.71 z m 46.36,-18.36 c -2.75,-12.47 -11.91,-18.52 -22.72,-18.52 -12.65,0 -21.26,6.79 -24,18.52 z"
     id="path20"
     inkscape:connector-curvature="0"
     style="fill:#231f20" />
  <path
     class="cls-1"
     d="m 1167.9627,188.19359 h -20.71 v 38.12 c 0,9.89 7.15,10.07 20.71,9.35 v 21.44 c -32.44,3.66 -44.35,-5.69 -44.35,-30.79 v -38.12 h -15.94 v -22.73 h 15.94 v -18.51 l 23.64,-7.14 v 25.65 h 20.71 z"
     id="path22"
     inkscape:connector-curvature="0"
     style="fill:#231f20" />
  <path
     class="cls-2"
     d="m 336.69267,106.14359 -144.83,-83.62 a 15.09,15.09 0 0 0 -15.12,0 l -107.769998,62.22 v 0 l -11,6.3 a 7.56,7.56 0 0 0 3.78,14.12 7.48,7.48 0 0 0 3.76,-1 l 84.309998,-48.48 a 7.62,7.62 0 0 0 1.29,-0.94 l 25.62,-14.8 v 63.19 l -77.080001,44.36 -54.449997,-31.3 -10.37,-6.46 a 6.8,6.8 0 0 0 -10.4,5.77 v 3 c 0,0.24 -0.09,0.47 -0.09,0.71 v 167.26 a 15.12,15.12 0 0 0 7.57,13.1 l 108.239998,62.47 v 0 l 11,6.34 a 7.49,7.49 0 0 0 3.77,1 7.56,7.56 0 0 0 3.79,-14.11 l -55.6,-32.1 c -0.1,-0.06 -0.22,-0.09 -0.32,-0.14 l -54.639998,-31.54 51.919998,-28.08 51.27,29.6 a 7.56,7.56 0 0 0 10.32,-2.77 7.56,7.56 0 0 0 -2.76,-10.33 l -51.82,-29.91 v -57.93 a 7.5600005,7.5600005 0 1 0 -15.120001,0 v 58.56 l -52.499997,28.39 v -148.69 l 136.689998,78.6 v 142.05 0 28.65 a 7.19,7.19 0 0 0 10.73,6.26 l 18.33,-10.38 v 0 l 1,-0.55 5.91,-3.34 c 0.1,-0.05 0.15,-0.15 0.24,-0.2 l 124.35,-71.8 a 15.12,15.12 0 0 0 7.57,-13.1 v -167.29 a 15.12,15.12 0 0 0 -7.59,-13.09 z m -221.88,50.07 69.48,-39.95 52.28,30.18 a 7.5631425,7.5631425 0 1 0 7.58,-13.09 l -52.22,-30.15 v -63.19 l 131.4,75.86 -139.87,79.81 z m 76.48,209.85 v -157.43 l 70.22,-40.07 v 81.45 l -55,31.74 a 7.5739026,7.5739026 0 1 0 7.64,13.08 l 55,-31.78 50.52,28.89 z m 137.86,-86.13 -52.5,-30 v -90 l 52.5,-30 z"
     id="path24"
     inkscape:connector-curvature="0"
     style="fill:#ed1c24" />
</svg>
