<svg id="Warstwa_1" data-name="Warstwa 1" xmlns="http://www.w3.org/2000/svg" viewBox="0 0 1600 800"><defs><style>.cls-1{fill:#231f20;}.cls-2{fill:#ed1c24;}</style></defs><title>basic_full</title><path class="cls-1" d="M712.22,369.35c6.59,6.77,9.89,15.94,9.89,27.85v56.27H698.47V400.14c0-12.29-7.14-18.88-18.14-18.88-12.27,0-20.16,7.51-20.16,22.72v49.49H636.53V325.17h23.64v46.92c5.69-8.61,14.84-12.83,27.31-12.83C697.55,359.26,705.8,362.56,712.22,369.35Z"/><path class="cls-1" d="M802.7,361.83h23.64v91.64H802.7V443.2C797,451.81,787.86,456,775.39,456c-10.07,0-18.32-3.3-24.92-10.08-6.41-6.78-9.71-15.94-9.71-27.85V361.83H764.4v53.33c0,12.28,7.15,18.88,18.14,18.88,12.28,0,20.16-7.52,20.16-22.73Z"/><path class="cls-1" d="M885.66,397.94c13.39,2.74,30.79,9.16,30.61,28.77,0,9.34-3.48,16.67-10.63,21.81-7,5-15.76,7.51-26.21,7.51-18.87,0-31.7-7.33-38.48-21.8l20.53-11.55c2.74,7.87,8.61,11.91,17.95,11.91,8.43,0,12.65-2.56,12.65-7.88,0-4.95-7.33-7.7-16.67-10.08-13.57-3.48-30.61-9.16-30.61-28.22,0-9,3.3-16.13,9.89-21.26,6.79-5.32,15-7.89,24.93-7.89,14.84,0,27.68,7,34.82,19.44l-20.16,11c-2.93-6.23-7.88-9.35-14.66-9.35-6,0-10.63,2.94-10.63,7.51C869,392.81,876.31,395.55,885.66,397.94Z"/><path class="cls-1" d="M999.79,361.83h23.65v91.64H999.79V442.66c-7.14,9-17,13.37-29.87,13.37-12.28,0-22.72-4.58-31.52-13.93-8.61-9.35-13-20.9-13-34.45s4.4-24.93,13-34.27c8.8-9.35,19.24-14.12,31.52-14.12,12.82,0,22.73,4.41,29.87,13.39Zm-25.46,71.66q11,0,18.14-7.15c4.94-4.94,7.32-11.18,7.32-18.69s-2.38-13.74-7.32-18.52c-4.77-4.94-10.82-7.32-18.14-7.32s-13.39,2.38-18.15,7.32c-4.77,4.78-7.15,11-7.15,18.52s2.38,13.75,7.15,18.69Q963.32,433.5,974.33,433.49Z"/><path class="cls-1" d="M1068.46,377.6c4.4-11.73,15.4-17.6,27.85-17.6v26.39a27.52,27.52,0,0,0-19.42,4.4c-5.68,3.85-8.43,10.07-8.43,18.88v43.8h-23.64V361.83h23.64Z"/><path class="cls-1" d="M1185.71,369.35c6.6,6.77,9.9,15.94,9.9,27.85v56.27H1172V400.14c0-12.29-7.14-18.88-18.15-18.88-12.27,0-20.16,7.51-20.16,22.72v49.49H1110V361.83h23.64v10.26c5.69-8.61,14.85-12.83,27.31-12.83C1171.05,359.26,1179.3,362.56,1185.71,369.35Z"/><path class="cls-1" d="M1235.7,417.36c3.11,11.55,11.73,17.23,25.83,17.23,9,0,16-3.12,20.53-9.17l19.06,11c-9,13-22.36,19.61-39.95,19.61-15.21,0-27.31-4.58-36.47-13.75S1211,421.58,1211,407.65c0-13.74,4.58-25.29,13.55-34.46,9-9.34,20.72-13.93,34.83-13.93,13.38,0,24.55,4.59,33.17,13.93,8.79,9.35,13.2,20.72,13.2,34.46a63,63,0,0,1-.92,9.71ZM1282.06,399c-2.75-12.47-11.91-18.52-22.72-18.52-12.65,0-21.26,6.79-24,18.52Z"/><path class="cls-1" d="M1371.81,384.56H1351.1v38.12c0,9.89,7.15,10.07,20.71,9.35v21.44c-32.44,3.66-44.35-5.69-44.35-30.79V384.56h-15.94V361.83h15.94V343.32l23.64-7.14v25.65h20.71Z"/><path class="cls-2" d="M540.54,302.51,395.71,218.89a15.09,15.09,0,0,0-15.12,0L272.82,281.11l0,0-11,6.3a7.56,7.56,0,0,0,3.78,14.12,7.48,7.48,0,0,0,3.76-1l84.31-48.48a7.62,7.62,0,0,0,1.29-.94l25.62-14.8v63.19L303.5,343.86l-54.45-31.3-10.37-6.46a6.8,6.8,0,0,0-10.4,5.77v3c0,.24-.09.47-.09.71V482.84a15.12,15.12,0,0,0,7.57,13.1L344,558.41v0l11,6.34a7.49,7.49,0,0,0,3.77,1,7.56,7.56,0,0,0,3.79-14.11l-55.6-32.1c-.1-.06-.22-.09-.32-.14L252,487.86l51.92-28.08,51.27,29.6a7.56,7.56,0,0,0,10.32-2.77,7.56,7.56,0,0,0-2.76-10.33l-51.82-29.91V388.44a7.56,7.56,0,1,0-15.12,0V447l-52.5,28.39V326.7L380,405.3V547.35h0V576a7.19,7.19,0,0,0,10.73,6.26l18.33-10.38h0l1-.55,5.91-3.34c.1-.05.15-.15.24-.2l124.35-71.8a15.12,15.12,0,0,0,7.57-13.1V315.6A15.12,15.12,0,0,0,540.54,302.51ZM318.66,352.58l69.48-39.95,52.28,30.18A7.56,7.56,0,1,0,448,329.72l-52.22-30.15V236.38l131.4,75.86L387.31,392.05Zm76.48,209.85V405l70.22-40.07v81.45l-55,31.74A7.56,7.56,0,1,0,418,491.2L473,459.42l50.52,28.89ZM533,476.3l-52.5-30v-90l52.5-30Z"/></svg>